<svg id="visual" viewBox="0 0 1920 1080" width="100%" height="100%" xmlns="http://www.w3.org/2000/svg" xmlns:xlink="http://www.w3.org/1999/xlink" version="1.1"><rect x="0" y="0" width="1920" height="1080" fill="#df6821"></rect><path d="M0 611L192 610L384 562L576 486L768 475L960 496L1152 542L1344 506L1536 488L1728 546L1920 519L1920 1081L1728 1081L1536 1081L1344 1081L1152 1081L960 1081L768 1081L576 1081L384 1081L192 1081L0 1081Z" fill="#cccccc"></path><path d="M0 584L192 566L384 542L576 630L768 606L960 605L1152 539L1344 541L1536 624L1728 517L1920 682L1920 1081L1728 1081L1536 1081L1344 1081L1152 1081L960 1081L768 1081L576 1081L384 1081L192 1081L0 1081Z" fill="#b7bacc"></path><path d="M0 661L192 734L384 674L576 620L768 600L960 611L1152 760L1344 706L1536 712L1728 643L1920 684L1920 1081L1728 1081L1536 1081L1344 1081L1152 1081L960 1081L768 1081L576 1081L384 1081L192 1081L0 1081Z" fill="#a1a8cc"></path><path d="M0 749L192 777L384 695L576 798L768 706L960 709L1152 732L1344 771L1536 777L1728 693L1920 802L1920 1081L1728 1081L1536 1081L1344 1081L1152 1081L960 1081L768 1081L576 1081L384 1081L192 1081L0 1081Z" fill="#8a96cb"></path><path d="M0 771L192 773L384 851L576 833L768 776L960 785L1152 777L1344 884L1536 813L1728 820L1920 894L1920 1081L1728 1081L1536 1081L1344 1081L1152 1081L960 1081L768 1081L576 1081L384 1081L192 1081L0 1081Z" fill="#7085ca"></path><path d="M0 960L192 878L384 946L576 924L768 938L960 917L1152 943L1344 931L1536 904L1728 867L1920 874L1920 1081L1728 1081L1536 1081L1344 1081L1152 1081L960 1081L768 1081L576 1081L384 1081L192 1081L0 1081Z" fill="#5274c9"></path><path d="M0 1005L192 954L384 1004L576 956L768 978L960 981L1152 979L1344 1001L1536 970L1728 961L1920 1003L1920 1081L1728 1081L1536 1081L1344 1081L1152 1081L960 1081L768 1081L576 1081L384 1081L192 1081L0 1081Z" fill="#2264c7"></path></svg>