<svg id="visual" viewBox="0 0 2560 1440" width="2560" height="1440" xmlns="http://www.w3.org/2000/svg" xmlns:xlink="http://www.w3.org/1999/xlink" version="1.1"><rect x="0" y="0" width="2560" height="1440" fill="#ef8040"></rect><path d="M0 761L256 703L512 709L768 577L1024 726L1280 690L1536 791L1792 754L2048 572L2304 639L2560 793L2560 1441L2304 1441L2048 1441L1792 1441L1536 1441L1280 1441L1024 1441L768 1441L512 1441L256 1441L0 1441Z" fill="#cccccc"></path><path d="M0 795L256 741L512 757L768 720L1024 872L1280 736L1536 911L1792 796L2048 849L2304 837L2560 816L2560 1441L2304 1441L2048 1441L1792 1441L1536 1441L1280 1441L1024 1441L768 1441L512 1441L256 1441L0 1441Z" fill="#b7bacc"></path><path d="M0 1014L256 968L512 819L768 902L1024 874L1280 997L1536 892L1792 981L2048 864L2304 920L2560 885L2560 1441L2304 1441L2048 1441L1792 1441L1536 1441L1280 1441L1024 1441L768 1441L512 1441L256 1441L0 1441Z" fill="#a1a8cc"></path><path d="M0 991L256 988L512 1022L768 933L1024 924L1280 978L1536 1071L1792 961L2048 1001L2304 980L2560 1027L2560 1441L2304 1441L2048 1441L1792 1441L1536 1441L1280 1441L1024 1441L768 1441L512 1441L256 1441L0 1441Z" fill="#8a96cb"></path><path d="M0 1100L256 1196L512 1033L768 1071L1024 1166L1280 1183L1536 1084L1792 1067L2048 1158L2304 1177L2560 1149L2560 1441L2304 1441L2048 1441L1792 1441L1536 1441L1280 1441L1024 1441L768 1441L512 1441L256 1441L0 1441Z" fill="#7085ca"></path><path d="M0 1191L256 1187L512 1278L768 1279L1024 1145L1280 1170L1536 1168L1792 1243L2048 1163L2304 1270L2560 1186L2560 1441L2304 1441L2048 1441L1792 1441L1536 1441L1280 1441L1024 1441L768 1441L512 1441L256 1441L0 1441Z" fill="#5274c9"></path><path d="M0 1273L256 1371L512 1290L768 1315L1024 1336L1280 1303L1536 1356L1792 1314L2048 1280L2304 1371L2560 1270L2560 1441L2304 1441L2048 1441L1792 1441L1536 1441L1280 1441L1024 1441L768 1441L512 1441L256 1441L0 1441Z" fill="#2264c7"></path></svg>